<?xml version="1.0" encoding="UTF-8" standalone="no"?>
<svg
   version="1.1"
   viewBox="0 0 611.097 622.985"
   id="svg662"
   sodipodi:docname="debirdify.svg"
   inkscape:version="1.2.1 (9c6d41e410, 2022-07-14, custom)"
   xmlns:inkscape="http://www.inkscape.org/namespaces/inkscape"
   xmlns:sodipodi="http://sodipodi.sourceforge.net/DTD/sodipodi-0.dtd"
   xmlns="http://www.w3.org/2000/svg"
   xmlns:svg="http://www.w3.org/2000/svg">
  <defs
     id="defs666" />
  <sodipodi:namedview
     id="namedview664"
     pagecolor="#ffffff"
     bordercolor="#999999"
     borderopacity="1"
     inkscape:showpageshadow="0"
     inkscape:pageopacity="0"
     inkscape:pagecheckerboard="0"
     inkscape:deskcolor="#d1d1d1"
     showgrid="false"
     inkscape:zoom="0.82425743"
     inkscape:cx="-529.56757"
     inkscape:cy="441.60961"
     inkscape:window-width="3840"
     inkscape:window-height="2096"
     inkscape:window-x="0"
     inkscape:window-y="0"
     inkscape:window-maximized="1"
     inkscape:current-layer="svg662" />
  <g
     id="g19299"
     transform="translate(2.6266616,-340.75713)">
    <g
       id="g1036"
       transform="translate(-6.9347762,322.10199)">
      <path
         class="st2"
         d="m 447.83988,323.87591 c 16.9179,2.09244 -8.64898,-1.34616 0,0 4.86573,0.75732 8.02919,0.69042 8.02919,0.69042 0,0 -8,25 18,28 26,3 55,-5 56,-41 0.9917,-35.70109 -18.70078,-57.35437 -60.98147,-61.66604 -0.354,-0.0361 -10.57676,-1.04849 -37.78712,0.087"
         fill="#fbc16c"
         stroke="#946f3a"
         stroke-linecap="round"
         stroke-linejoin="round"
         stroke-miterlimit="10"
         stroke-width="4"
         id="path74-6"
         sodipodi:nodetypes="cscsssc" />
      <path
         class="st2"
         d="m 451.72366,324.31549 c 8.42393,0.8397 16.83438,0.8397 16.83438,0.8397"
         fill="#fbc16c"
         stroke="#946f3a"
         stroke-linecap="round"
         stroke-linejoin="round"
         stroke-miterlimit="10"
         stroke-width="4"
         id="path76-7"
         sodipodi:nodetypes="cc" />
      <path
         d="m 509.56828,274.22716 6.5,6.8 c 4.9,5.1 4.7,13.3 -0.4,18.2 l -1.9,1.8 c -5.1,4.9 -13.3,4.7 -18.2,-0.4 l -6.5,-6.8 c -4.9,-5.1 -4.7,-13.3 0.4,-18.2 l 1.9,-1.8 c 5.1,-4.9 13.3,-4.7 18.2,0.4 z"
         fill="#fdd06e"
         id="path78-5" />
    </g>
  </g>
  <path
     class="st6"
     d="m 332.227,546.857 c 0,0 1,40 2,51 1,11 3,16 20,17 17,1 41,-2 50,-4 9,-2 16,-6 14,-29 -2,-23 -4,-51 -4,-51"
     fill="#e09c5c"
     id="path578"
     style="stroke:#946f3a;stroke-width:4;stroke-linecap:round;stroke-linejoin:round;stroke-miterlimit:10" />
  <path
     class="st2"
     d="m 417.227,599.657 -0.1,-0.6 c -1.5,-5.7 -4.5,-7 -8,-6.3 -4.8,1 -6.1,7.7 -6.9,16.7 0,0.4 -0.1,0.8 -0.1,1.3 l 0.7,0.3 c 0.4,-0.1 0.9,-0.2 1.3,-0.3 5.9,-1.2 10.9,-3.4 13.1,-11.1 z"
     fill="#fbc16c"
     id="path580"
     style="stroke:#946f3a;stroke-width:4;stroke-linecap:round;stroke-linejoin:round;stroke-miterlimit:10" />
  <path
     class="st4"
     d="m152.827 525.857c-16 15-41 23-54 5-13-18-4-26-7-30s-21 8-13 31 54 48 97 14"
     fill="#e09c5c"
     id="path586" />
  <path
     class="st2"
     d="m413.227 189.957s34.6 70.9 43.1 175.4c7.2 89 15 139-46 168s-142 24-180 25c-38 1-78-4-88-47s0.5-76.5 0.5-76.5 1.4-71.2-2.1-82.7-9.2-28.7-9.2-28.7-5.7 40.1-35.5 53.6c-29.8 13.6-56.1 0.8-53.9-36.5 0 0-25.5-42.6-37.6-79.9-12.1-37.3 19.8-73.9 78.3-58.8 2-71 63.6-130.7 149.1-137.7 85.4-7.1 106.3 38.7 151.9 40.7 44 2 75-12 98-35s70-53 107-29c0 0 18-6 20 10s-7 16-12 19c0 0 7 22-7 25s-12-18-12-18-23-3-42 27c-19 30-47.2 70.2-122.6 86.1-16.1 1.4-29.5-3.9-29.5-3.9"
     fill="#fbc16c"
     stroke="#946f3a"
     stroke-linecap="round"
     stroke-linejoin="round"
     stroke-miterlimit="10"
     stroke-width="4"
     id="path588" />
  <path
     class="st6"
     d="m172.827 532.857c0 23-4 53-5 64s3 22.4 21 23c28 1 82 5 87-12 6.3-21.6 5-58 0-70"
     fill="#e09c5c"
     stroke="#946f3a"
     stroke-linecap="round"
     stroke-linejoin="round"
     stroke-miterlimit="10"
     stroke-width="4"
     id="path590" />
  <g
     fill="#fbc16c"
     id="g602">
    <g
       stroke="#946f3a"
       stroke-linecap="round"
       stroke-linejoin="round"
       stroke-miterlimit="10"
       stroke-width="4"
       id="g598">
      <path
         class="st2"
         d="m208.027 620.557c0.8-9.7 1.8-15.7 6.8-16.7s8.8 3.1 8.9 17.1"
         id="path592" />
      <path
         class="st2"
         d="m224.027 620.557c0.8-9.7 1.8-15.7 6.8-16.7s8.8 3.1 8.9 17.1"
         id="path594" />
      <path
         class="st2"
         d="m239.827 620.857c0.8-9.7 2-17 6.99999-18 5-1 8.9 2.1 9 16"
         id="path596" />
    </g>
    <path
       d="m245.627 574.657h-15.4c-7.8 0-14.2-6.4-14.2-14.2s6.4-14.2 14.2-14.2h15.4c7.79999 0 14.2 6.4 14.2 14.2s-6.4 14.2-14.2 14.2z"
       id="path600" />
  </g>
  <path
     class="st4"
     d="m40.0272 262.057c7.3 9.1 20.6 38.2 19.8 61-0.9 22.9 23.8 32.8 36.8 13 13-19.8 16.6-58.4 7.6-77.2-9-18.9-13.9-26-13.9-26s-4.9 9-17.5 10.8-13-3.1-17.3-9.8c0 0 0.6 7.4-10.6 11.5-11.2 4.2-14.8-5-14.8-5s2.7 12.7 9.9 21.7z"
     fill="#e09c5c"
     id="path604" />
  <path
     class="st4"
     d="m222.327 556.457c-21.3 0-36.8-2.7-48.9-8.4-15.4-7.3-25-19.4-29.1-37.2-9.8-42 0.4-75.1 0.5-75.4l0.1-0.3v-0.3s0.1-3.7 0.1-9.7c13.9 0.5 33.3 2.8 50.3 10.8 16.8 7.9 27.4 19.6 31.6 34.6 9.3 33.4 33.5 49.6 74.1 49.6 12.6 0 27-1.5 43.9-4.6 8.6-1.6 17.1-2.8 25.3-4 38.7-5.6 72.8-10.5 87.9-47.9-3.3 28.9-14.8 51.7-48.6 67.8-51.3 24.4-116.2 24.5-159.1 24.6-7.69999 0-14.3 0-20.1 0.2-2.9 0.1-5.5 0.2-8 0.2z"
     fill="#e09c5c"
     id="path606" />
  <path
     d="m 334.49063,226.23442 c 0.84278,-8.58158 -6.93067,-25.66191 -13.69853,-29.52589 -21.6905,-12.38378 -48.65241,4.05389 -53.08914,19.59784 -3.54658,10.71525 5.69535,18.96484 7.50889,27.82651 1.90917,9.32895 25.73739,23.42268 33.51695,21.80732 7.77956,-1.61536 16.79089,-5.50463 21.9095,-19.9832 4.5375,-10.52347 3.85233,-19.72258 3.85233,-19.72258 z"
     fill="#2e2314"
     stroke="#2b2011"
     stroke-linecap="round"
     stroke-linejoin="round"
     stroke-miterlimit="10"
     stroke-width="3.23609"
     id="path608"
     sodipodi:nodetypes="cscsscc" />
  <g
     transform="matrix(0.64829682,0,0,1.0095981,10.382601,-159.70636)"
     id="g612">
    <path
       d="M 423.24895,409.50019 C 417.80484,406.6186 411.83705,403.66838 411.7,399.5 l -2.2,-1.3 c -5.1,-2.9 -7.30631,-6.05901 -8.09267,-10.15376 -0.67446,-4.7443 -0.95052,-9.19948 -0.32019,-12.56072 0.72528,-3.86756 0.26197,-6.74071 2.07721,-7.83403 30.01196,0.19959 88.45551,25.11859 86.90733,34.85529 C 481.7602,416.18985 471.38901,417.47507 460,419.6 c -15.38461,0.94181 -28.20947,-5.68482 -36.75105,-10.09981 z"
       fill="#ad4949"
       id="path610"
       sodipodi:nodetypes="ccccscccc" />
  </g>
  <path
     class="st2"
     d="m128.627 148.057c-20.7 3.4-36.9-0.3-43.7-27.4-6.8-27.1 17-58.9 51.2-71.3s68-2.3 68-2.3 9.5-22.5 12.8-35.5c3.3-13 13.3-14.1 23.6 5.2 0 0 28.8-4.1 32.3 26.8 3.6 30.9-20.7 46.4-20.7 46.4"
     fill="#fbc16c"
     stroke="#946f3a"
     stroke-linecap="round"
     stroke-linejoin="round"
     stroke-miterlimit="10"
     stroke-width="4"
     id="path620" />
  <path
     class="st2"
     d="m240.627 16.6571c4.3 10.3 2.9 22.9 2.7 27"
     fill="#fbc16c"
     stroke="#946f3a"
     stroke-linecap="round"
     stroke-linejoin="round"
     stroke-miterlimit="10"
     stroke-width="4"
     id="path622" />
  <g
     transform="translate(-164.173 -156.043)"
     id="g632">
    <path
       class="st33"
       d="m387.3 470.6c-4.3 0-8.8-0.5-13.2-1.6-21.2-5.2-32.9-21.5-36.5-34-2.3-8-1.6-14.9 2-18.5 3.2-3.3 6.7-5 10.2-5 7.5 0 14.4 7.2 17.8 11.5 7.6 9.5 14.8 14.3 21.4 14.3 5.3 0 9.9-3 13.7-9 10-15.4 12.7-34.1 8.2-55.4-1.5-7.1 0.3-11.2 2.1-13.4 1.8-2.3 4.5-3.6 7.3-3.6 1.6 0 3 0.4 4.2 1.2 18.2 11.8 20.2 52 13.6 74.4-5.6 18.8-23.9 39.1-50.8 39.1z"
       fill="#fff"
       id="path628" />
    <path
       class="st42"
       d="m420.2 357.9c1.2 0 2.2 0.3 3.1 0.9 7.6 4.9 13 16 15.2 31.2 2 13.6 1 29.3-2.5 41-2.9 9.9-9.1 19.2-17.3 26-9.1 7.6-20 11.6-31.5 11.6-4.2 0-8.4-0.5-12.7-1.6-20.4-5-31.6-20.7-35-32.6-2.1-7.2-1.5-13.5 1.5-16.5 2.9-2.9 5.8-4.4 8.8-4.4 6.9 0 13.7 7.5 16.3 10.7 8 10 15.7 15 22.9 15 6 0 11.2-3.3 15.4-9.9 10.3-15.9 13.1-35 8.4-56.9-1.1-4.9-0.5-9.1 1.7-11.7 1.5-1.8 3.6-2.8 5.7-2.8m0-4c-6.7 0-14.1 6.4-11.3 19.4 3.6 16.6 3.6 36-7.9 53.8-3.8 5.9-8 8.1-12.1 8.1-8.2 0-16.1-8.8-19.8-13.5-3.8-4.8-11.1-12.2-19.4-12.2-3.8 0-7.7 1.5-11.7 5.6-11 11.3 2 47.6 35.5 55.8 4.7 1.2 9.3 1.7 13.7 1.7 26.7 0 46.6-19.8 52.7-40.5 7.1-24 4.6-64.4-14.4-76.7-1.5-1-3.4-1.5-5.3-1.5z"
       fill="#7d7d65"
       id="path630" />
  </g>
  <path
     d="m203.127 285.457c6.5 1.7 19.4 2 29.8-6.6"
     fill="none"
     stroke="#7d7d65"
     stroke-linecap="round"
     stroke-linejoin="round"
     stroke-miterlimit="10"
     stroke-width="4"
     id="path634" />
  <path
     d="m86.3272 236.957c-3.7 5-10.1 7.9-16.3 7.2-6.2-0.6-11.9-4.7-14.5-10.4-1.1 5.4-5.3 10.2-10.6 11.5-5.3 1.3-11.4-0.7-14.8-5 1.6 13 12 22.7 16.5 35"
     fill="none"
     stroke="#946f3a"
     stroke-linecap="round"
     stroke-linejoin="round"
     stroke-miterlimit="10"
     stroke-width="4"
     id="path636" />
  <path
     d="m176.327 248.157-17.1 6.5c-5 1.9-10.6-0.6-12.4-5.6-1.9-5 0.6-10.6 5.6-12.4l17.1-6.5c5-1.9 10.6 0.6 12.4 5.6 1.9 4.9-0.6 10.5-5.6 12.4z"
     fill="#e68a4c"
     id="path638" />
  <g
     fill="none"
     stroke="#fbd7a3"
     stroke-linecap="round"
     stroke-linejoin="round"
     stroke-miterlimit="10"
     stroke-width="4"
     id="g648">
    <path
       class="st34"
       d="m538.327 46.6571c7.3-2.8 14.1-4.3 19.2-3.8"
       id="path640" />
    <path
       class="st34"
       d="m474.327 95.7571c11.7-11.4 21.9-20.7 31.6-29.6 3.9-3.5 8.7-7.1 13.9-10.3"
       id="path642" />
    <path
       class="st34"
       d="m384.227 121.257c15.7 1.4 33.6-0.1 52.7-6.6"
       id="path644" />
    <path
       class="st34"
       d="m274.627 78.9571c19.9 3.5 36.4 12.2 56.1 23.6"
       id="path646" />
  </g>
  <g
     transform="translate(-164.173 -156.043)"
     id="g656">
    <path
       class="st2"
       d="m311 486.9c-48 22-68 37-57 78s59 41 59 41-8 25 18 28 55-5 56-41-20-61-63-65"
       fill="#fbc16c"
       stroke="#946f3a"
       stroke-linecap="round"
       stroke-linejoin="round"
       stroke-miterlimit="10"
       stroke-width="4"
       id="path650" />
    <path
       class="st2"
       d="m313 605.9c10 2 25 2 25 2"
       fill="#fbc16c"
       stroke="#946f3a"
       stroke-linecap="round"
       stroke-linejoin="round"
       stroke-miterlimit="10"
       stroke-width="4"
       id="path652" />
    <path
       d="m354.2 548.6 6.5 6.8c4.9 5.1 4.7 13.3-0.4 18.2l-1.9 1.8c-5.1 4.9-13.3 4.7-18.2-0.4l-6.5-6.8c-4.9-5.1-4.7-13.3 0.4-18.2l1.9-1.8c5.1-4.9 13.3-4.7 18.2 0.4z"
       fill="#fdd06e"
       id="path654" />
  </g>
  <path
     d="m 309.02762,254.62856 -5.94874,2.52343 c -4.48444,1.84404 -9.60951,-0.48528 -11.34838,-5.24097 l -0.64063,-1.74699 c -1.73887,-4.75569 0.45759,-10.19076 4.94203,-12.03481 l 5.94875,-2.52343 c 4.48444,-1.84404 9.60951,0.48528 11.34837,5.24097 l 0.64064,1.74699 c 1.83038,4.75569 -0.4576,10.19077 -4.94204,12.03481 z"
     fill="#b9655a"
     id="path658"
     style="stroke-width:0.942464" />
  <path
     class="st2"
     d="m131.527 323.357c1.8-14 0.6-22.1 0.6-22.1"
     fill="#fbc16c"
     stroke="#946f3a"
     stroke-linecap="round"
     stroke-linejoin="round"
     stroke-miterlimit="10"
     stroke-width="4"
     id="path660" />
  <g
     id="g20483"
     transform="rotate(90.074326,419.53514,226.1105)">
    <g
       id="g20488">
      <path
         style="fill:none;stroke:#000000;stroke-width:4;stroke-linecap:butt;stroke-linejoin:miter;stroke-dasharray:none;stroke-opacity:1"
         d="m 422.47907,301.90782 c 6.61158,-51.92146 9.20542,-79.71377 -16.82636,-134.57387"
         id="path6323"
         sodipodi:nodetypes="cc" />
      <path
         style="fill:none;stroke:#000000;stroke-width:4;stroke-linecap:butt;stroke-linejoin:miter;stroke-dasharray:none;stroke-opacity:1"
         d="m 433.49475,305.02179 c 6.39775,-38.13885 28.28045,-63.236 63.70598,-76.0797"
         id="path6323-7-0"
         sodipodi:nodetypes="cc" />
      <path
         style="fill:none;stroke:#000000;stroke-width:4;stroke-linecap:butt;stroke-linejoin:miter;stroke-dasharray:none;stroke-opacity:1"
         d="m 412.36634,304.25772 c -6.39775,-38.13885 -28.28045,-63.236 -63.70598,-76.0797"
         id="path6323-7-0-9"
         sodipodi:nodetypes="cc" />
    </g>
  </g>
  <path
     d="m 205.36802,193.6279 c 7.17043,0.45047 13.94003,0.99937 12.56834,-1.82347 -1.37169,-2.82285 -9.20046,-6.14552 -15.95401,-7.35669 -6.80129,-0.39718 -11.29668,0.0595 -18.86698,2.98279 -7.30847,2.82221 -11.54817,10.48366 -13.10136,12.6409 -3.16008,4.38907 -6.26386,9.92269 -4.89217,12.74553 1.37169,2.82285 5.8247,0.60616 9.11576,-3.16423 1.54416,-2.26764 6.87998,-10.56173 15.12055,-13.81529 7.93825,-3.1342 10.97905,-2.51535 16.00987,-2.20954 z"
     id="path48"
     sodipodi:nodetypes="cscssscsc" />
</svg>
