<svg xmlns="http://www.w3.org/2000/svg" width="24" height="24"><path fill="#099486" d="M22.107 19.694H18.05s-.141-.318-.318-.6c-.141-.282-.529-.282-.529-.282H6.866s-.388-.035-.564.282a5.55 5.55 0 00-.318.6H1.962c-.847 0-1.588-.706-1.588-1.552V5.794c0-.847.706-1.588 1.552-1.588h20.11c.847 0 1.588.706 1.588 1.552v12.348a1.523 1.523 0 01-1.517 1.588z"/><path fill="#E9F3E3" d="M17.344 7.593H6.725c-1.835 0-3.316 1.482-3.316 3.316s1.482 3.316 3.316 3.316h10.619c1.835 0 3.316-1.482 3.316-3.316s-1.481-3.316-3.316-3.316zm-9.419 4.269s-.494-.353-1.164-.353c-.529 0-1.094.318-1.094.318a1.37 1.37 0 01-.247-.812c0-.776.635-1.411 1.411-1.411s1.411.635 1.411 1.411c0 .282-.106.6-.317.847zm4.127.811c-1.552 0-1.482-1.2-1.482-1.2-.035-.212.282-.282.353-.176.035.071.035.071.071.212.212.741 1.058.706 1.058.706s.847.035 1.058-.706c.035-.141.035-.141.071-.212.106-.141.388-.071.353.176 0 .001.071 1.2-1.482 1.2zm6.351-.882s-.6-.318-1.094-.318c-.67 0-1.164.353-1.164.353a1.465 1.465 0 01-.282-.882c0-.776.635-1.411 1.411-1.411s1.411.635 1.411 1.411c0 .353-.106.636-.282.847zM5.279 6.182c-.777-.212-1.447.247-1.835.917-.106.141-.035.282.071.318.141.035.211.035.352-.177.282-.494.741-.741 1.27-.67 0 0 .353.106.423-.106.001-.176-.14-.247-.281-.282zm14.076.494c0 .247.353.247.353.247.529.035.847.282.988.847.071.247.141.282.282.282.106 0 .212-.106.141-.282-.176-.741-.635-1.235-1.446-1.235-.141-.036-.318 0-.318.141z"/></svg>