<svg xmlns="http://www.w3.org/2000/svg" width="24" height="24" viewBox="0 0 24 24"><circle fill="#231F20" cx="12.157" cy="12" r="10.809"/><path fill="#FFF" d="M13.926 17.597l-1.267-1.77c-.34-.47-.615-.84-.63-.84-.014 0-.545.715-1.26 1.692-.677.93-1.237 1.69-1.244 1.69-.02 0-2.445-1.71-2.45-1.727-.004-.01.544-.814 1.218-1.79.673-.975 1.225-1.788 1.225-1.806 0-.03-.22-.106-1.93-.677-1.062-.355-1.94-.647-1.954-.653-.017-.006.083-.344.43-1.438.25-.787.458-1.437.467-1.446.006-.008.93.287 2.05.656 1.12.37 2.046.67 2.058.67.01 0 .024-.018.03-.037.004-.02.014-.974.02-2.12.008-1.144.02-2.09.027-2.102.01-.016.327-.02 1.48-.02.808 0 1.476.007 1.487.013.013.008.035.637.073 2.053.06 2.32.062 2.35.1 2.35.012 0 .9-.296 1.972-.66 1.07-.362 1.952-.653 1.96-.646.02.023.9 2.885.888 2.894-.006.006-.9.31-1.986.68-1.494.507-1.977.677-1.98.698-.004.017.51.784 1.163 1.74.643.943 1.168 1.72 1.165 1.73-.007.02-2.414 1.793-2.435 1.793-.008 0-.313-.416-.678-.926v-.002z"/></svg>