<svg xmlns="http://www.w3.org/2000/svg" width="24" height="24" xml:space="preserve"><path fill="#7D287D" d="M3.369.616A3.073 3.073 0 0 0 .528 2.51a3.1 3.1 0 0 0 .664 3.358c.431.418.972.713 1.562.836v6.273c-.396.075-.773.23-1.107.455a3.075 3.075 0 1 0 4.28 4.268 3.077 3.077 0 0 0 .517-1.71 3.02 3.02 0 0 0-.246-1.23 3.05 3.05 0 0 0-2.214-1.833V9.976a6.794 6.794 0 0 0 2.46 2.128c.801.41 1.674.661 2.571.738a3.074 3.074 0 0 0 6.076-.418l-.123-.012h-1.144a1.843 1.843 0 0 1-.529 1.193 1.845 1.845 0 0 1-3.013-.602 1.823 1.823 0 0 1-.098-1.058c.007-.041.015-.082.025-.123l-1.242-.16a5.56 5.56 0 0 1-4.895-4.92c.185-.035.367-.088.541-.16a3.076 3.076 0 0 0 1.894-2.829 3.04 3.04 0 0 0-.247-1.231A3.053 3.053 0 0 0 4.611.849a3.017 3.017 0 0 0-1.23-.234h-.012zm0 1.23a1.845 1.845 0 1 1 0 3.69 1.846 1.846 0 0 1-1.722-1.144 1.84 1.84 0 0 1-.086-1.058 1.832 1.832 0 0 1 1.451-1.451c.121-.025.245-.037.369-.037h-.012zm0 12.3c.24-.001.479.045.701.135.332.148.627.381.836.689a1.844 1.844 0 0 1-2.558 2.558 1.906 1.906 0 0 1-.689-.836 1.823 1.823 0 0 1-.098-1.058 1.832 1.832 0 0 1 1.451-1.451c.121-.025.245-.037.369-.037h-.012z"/><path fill="#676767" d="M20.491 5.204a3.077 3.077 0 0 0-2.399 1.353 3.077 3.077 0 0 0-.517 1.71c-.009.422.071.841.234 1.23a3.05 3.05 0 0 0 2.214 1.833v2.952a6.794 6.794 0 0 0-2.46-2.128 6.945 6.945 0 0 0-2.558-.738 3.075 3.075 0 0 0-6.064.258l1.255.184a1.845 1.845 0 1 1 3.652.455 1.082 1.082 0 0 1-.025.098l1.23.184a5.56 5.56 0 0 1 4.908 4.92 2.756 2.756 0 0 0-.541.16 3.074 3.074 0 0 0-1.906 2.841c-.009.422.071.841.234 1.23a3.05 3.05 0 0 0 1.66 1.66 3.02 3.02 0 0 0 1.23.246 3.075 3.075 0 0 0 2.829-1.906 3.1 3.1 0 0 0-.652-3.358 3.157 3.157 0 0 0-1.562-.836V11.28a2.958 2.958 0 0 0 1.095-.455 3.076 3.076 0 0 0-1.87-5.622l.013.001zm.233 1.217a1.848 1.848 0 0 1 1.636 1.143c.137.335.171.703.098 1.058a1.832 1.832 0 0 1-1.451 1.451 1.84 1.84 0 0 1-1.058-.098 1.9 1.9 0 0 1-.836-.689 1.846 1.846 0 0 1 1.599-2.866l.012.001zm-.073 12.3a1.847 1.847 0 0 1 1.71 1.144c.137.335.171.703.098 1.058a1.832 1.832 0 0 1-1.451 1.451 1.845 1.845 0 1 1-.357-3.653z"/></svg>