<svg xmlns="http://www.w3.org/2000/svg" enable-background="new 0 0 24 24" viewBox="0 0 24 24" xml:space="preserve">
<g transform="translate(0 -26.067)">
    <path d="m3.459 30.685c-0.024 0-0.047 0-0.071 1e-3 -0.108 2e-3 -0.215 9e-3 -0.32 0.021-0.845 0.097-1.605 0.547-2.072 1.332-0.457 0.769-0.569 1.617-0.337 2.402 0.233 0.785 0.797 1.498 1.632 2.063 5e-3 3e-3 0.01 7e-3 0.015 0.01 0.716 0.432 1.43 0.723 2.194 0.874-0.019 0.315-0.018 0.639 2e-3 0.971 0.061 1.003 0.415 1.926 0.952 2.742l-1.924 0.785c-0.208 0.081-0.309 0.317-0.224 0.524 0.084 0.207 0.321 0.304 0.527 0.217l2.117-0.864c0.393 0.468 0.844 0.892 1.328 1.264 0.019 0.014 0.037 0.028 0.056 0.042l-1.24 1.642c-0.136 0.176-0.103 0.43 0.075 0.564s0.431 0.097 0.563-0.082l1.26-1.668c0.692 0.438 1.427 0.78 2.152 1.006 0.372 0.682 1.099 1.116 1.94 1.116 0.848 0 1.576-0.467 1.945-1.136 0.718-0.23 1.444-0.573 2.129-1.01l1.277 1.692c0.132 0.179 0.385 0.216 0.563 0.082s0.212-0.388 0.075-0.564l-1.259-1.667c8e-3 -6e-3 0.017-0.013 0.025-0.019 0.478-0.366 0.926-0.782 1.318-1.241l2.064 0.843c0.205 0.087 0.442-0.011 0.527-0.217 0.084-0.207-0.017-0.442-0.224-0.524l-1.863-0.761c0.554-0.821 0.926-1.751 1.004-2.762 0.026-0.334 0.031-0.661 0.016-0.979 0.759-0.151 1.468-0.442 2.18-0.871 5e-3 -3e-3 0.01-6e-3 0.015-0.01 0.835-0.565 1.4-1.278 1.632-2.063 0.233-0.785 0.12-1.632-0.337-2.402-0.466-0.785-1.227-1.235-2.072-1.332-0.106-0.012-0.212-0.019-0.32-0.021-0.755-0.014-1.561 0.221-2.336 0.668-0.57 0.329-1.084 0.833-1.486 1.383-1.125-0.644-2.589-1.006-4.387-1.036-0.161-3e-3 -0.325-3e-3 -0.492 0-2.005 0.033-3.61 0.413-4.822 1.1-3e-3 -5e-3 -6e-3 -9e-3 -9e-3 -0.014-0.407-0.569-0.935-1.093-1.522-1.432-0.751-0.434-1.531-0.667-2.266-0.669v0z" fill="none" stroke="#fff" stroke-linecap="round" stroke-linejoin="round" stroke-width=".7"/>
    <path d="m17.205 32.99c0.382-0.534 0.884-1.028 1.413-1.333 1.667-0.962 3.426-0.831 4.252 0.561 0.827 1.393 0.375 2.937-1.191 3.996-0.799 0.482-1.573 0.773-2.431 0.889m-12.286-4.113c-0.382-0.534-0.884-1.028-1.413-1.333-1.667-0.962-3.426-0.831-4.252 0.561-0.827 1.393-0.375 2.937 1.191 3.996 0.799 0.482 1.573 0.773 2.431 0.889" fill="#fff" stroke="#010101" stroke-linecap="round" stroke-linejoin="round" stroke-width=".7"/>
    <path d="m19.314 38.337c0.288-3.745-2.016-6.372-7.231-6.287s-7.457 2.566-7.231 6.287c0.216 3.552 4.42 6.16 7.203 6.16s6.987-2.613 7.259-6.16z" fill="#fff" stroke="#010101" stroke-linecap="round" stroke-linejoin="round" stroke-width=".7"/>
    <path d="m14.546 40.023c0 0.578 0.468 1.046 1.045 1.046s1.045-0.468 1.045-1.046-0.468-1.046-1.045-1.046c-0.578 0-1.045 0.468-1.045 1.046zm-7.014 0c0 0.583 0.472 1.056 1.054 1.056s1.054-0.473 1.054-1.056-0.472-1.056-1.054-1.056-1.054 0.473-1.054 1.056z" fill="#010101"/>
    <path d="m7.777 43.147-1.364 1.806m9.977-1.806 1.364 1.806m-11.879-3.592-2.194 0.896m14.497-0.896 2.194 0.896" fill="none" stroke="#010101" stroke-linecap="round" stroke-width=".8"/>
    <path d="m12.083 41.743c-1.147 0-1.878 0.796-1.854 1.778 0.027 1.063 0.812 1.778 1.854 1.778s1.851-0.825 1.854-1.778c2e-3 -0.982-0.707-1.778-1.854-1.778z" fill="#fff" stroke="#010101" stroke-linecap="round" stroke-linejoin="round" stroke-width=".7"/>
</g>
</svg>