<svg xmlns="http://www.w3.org/2000/svg" width="24" height="24" xml:space="preserve"><path fill="#7E57C2" d="M11.965.236C18.458.236 23.729 5.507 23.729 12c0 6.493-5.271 11.764-11.764 11.764C5.472 23.764.201 18.493.201 12 .201 5.507 5.472.236 11.965.236z"/><path fill="#FFF" d="M16.718 15.94h-2.056V8.029h3.274c.888 0 1.569.231 2.041.692.472.462.708 1.112.708 1.952 0 .839-.236 1.49-.708 1.952-.472.462-1.152.692-2.041.692h-1.217v2.623zM3.446 15.94l1.343-7.911h2.035l1.584 4.218 1.574-4.218h2.036l1.343 7.911h-2.046l-.682-4.553-1.868 4.553h-.818l-1.773-4.553-.682 4.553z"/><path fill="#785CA7" d="M16.718 11.66h.682c.756 0 1.133-.329 1.133-.986 0-.658-.378-.986-1.133-.986h-.682v1.972z"/></svg>