<svg xmlns="http://www.w3.org/2000/svg" width="24" height="24"><path fill="#FFD599" d="M3.96.613h16.204a3.284 3.284 0 013.285 3.285v16.203a3.285 3.285 0 01-3.285 3.286H3.96A3.287 3.287 0 01.675 20.1V3.897A3.284 3.284 0 013.96.613z"/><path fill="#4B4569" d="M12.315 6.974c-3.494 0-6.83 2.132-6.83 7.933 0 5.381 3.336 7.555 6.83 7.555s6.326-2.173 6.326-7.555c0-5.381-2.833-7.933-6.326-7.933zm-.132 12.653c-2.048 0-2.856-1.806-2.856-2.856 0-.369-.013-3.153.074-4.2.082-.986.63-2.94 2.782-2.94 1.365 0 2.594 1.579 2.594 2.944s.105 3.147.105 4.196c0 1.26-.651 2.856-2.699 2.856z"/><path fill="#FFF" d="M14.094 3.394c0 .882-.494 1.869-2.258 1.869-1.648 0-2.257-.672-2.257-1.869 0-1.271.346-1.995 2.257-1.995 1.607 0 2.258.829 2.258 1.995z"/></svg>