<svg xmlns="http://www.w3.org/2000/svg" width="24" height="24"><path fill="#E47A25" d="M12.057 20.238c0 .651 1.357 1.234 1.637 1.305.277.071.193.39.938.236.744-.155 1.546-.87 2.31-1.853.767-.983.206-1.692-.364-2.44-.57-.75-1.808-1.617-1.946-3.3-.11-1.32.98-1.372 1.434-1.417.454-.045 1.208.531 1.52.464.297-.065 1.55 1.137 1.686.705-.077-.518.245-.799.677-.815.432-.016.583.693.78 1.063.241.458.441.136.48-.248.106-1.024-.239-2.078-.065-2.755.1-.38.368-.425.774-.87 1.07-1.17 1.082-2.906.84-3.735.278-.335.645-.338.7-2.226.055-1.889-1.363-3.493-1.74-3.713-.38-.219-1.46-.022-1.74.213s-3.513 2.923-3.912 3.384c-.4.46-.603.676-.387 1.64-.76-.712-2.01-1.212-3.622-.957-1.611-.255-2.862.248-3.622.957.216-.964.013-1.18-.387-1.64-.4-.458-3.628-3.145-3.912-3.384C3.856.617 2.773.423 2.396.64 2.016.86.598 2.463.653 4.352s.422 1.891.7 2.226c-.243.829-.23 2.565.84 3.735.406.445.677.49.774.87.174.677-.168 1.73-.065 2.755.039.384.239.706.48.248.197-.37.348-1.079.78-1.063s.754.297.677.815c.138.429 1.389-.77 1.685-.705.31.067 1.063-.51 1.521-.464.454.045 1.544.096 1.434 1.417-.139 1.683-1.376 2.55-1.946 3.3-.57.751-1.131 1.457-.368 2.44.767.982 1.57 1.698 2.31 1.853.745.154.658-.162.939-.236.286-.07 1.643-.654 1.643-1.305 0-.65 0-.65 0 0z"/><path fill="#868383" d="M12.038 21.82c.538 0 1.614-.277 1.614-.277.277.071.193.39.938.236 0 0 .38-.062.416.183.035.245-.213.79-.883 1.183s-1.373.367-2.085.377c-.71-.007-1.412.016-2.085-.377-.67-.393-.919-.938-.883-1.183.035-.245.416-.183.416-.183.744.154.657-.162.937-.236-.003 0 1.077.277 1.615.277z"/><path fill="#D5B829" d="M10.42 21.543c.277-.07 1.637-.654 1.637-1.305 0-.65 0-.65 0 0 0 .651 1.357 1.234 1.637 1.305"/><path fill="#868383" d="M7.165 19.926c-.767-.983-.206-1.692.364-2.44.57-.75 1.808-1.617 1.947-3.3.11-1.32-.98-1.372-1.434-1.417-.455-.045-1.209.531-1.521.464-.297-.065-1.55 1.137-1.685.705.077-.518-.245-.799-.677-.815-.432-.016-.593.667-.78 1.063-.528 1.112.135 2.04.693 2.885.631.957 3.093 2.855 3.093 2.855zM16.942 19.926c.767-.983.206-1.692-.364-2.44-.57-.75-1.808-1.617-1.946-3.3-.11-1.32.98-1.372 1.434-1.417.454-.045 1.208.531 1.52.464.297-.065 1.55 1.137 1.686.705-.077-.518.245-.799.677-.815.432-.016.593.667.78 1.063.528 1.112-.136 2.04-.693 2.885-.632.957-3.094 2.855-3.094 2.855z"/><path fill="#D7A6CC" d="M10.42 21.543c.277-.07 1.637-.654 1.637-1.305 0-.65 0-.65 0 0 0 .651 1.357 1.234 1.637 1.305 0 0-1.112.277-1.656.277-.538 0-1.618-.277-1.618-.277z"/><path fill="#27B34B" d="M9.33 14.94c.072-.231.123-.48.146-.75.11-1.321-.98-1.373-1.434-1.418-.455-.045-1.209.532-1.521.464 0 0 .184.541.068.954-.12.412.096 1.395 1.343 1.395 1.247 0 1.399-.644 1.399-.644zM14.777 14.94a3.565 3.565 0 01-.145-.75c-.11-1.321.98-1.373 1.434-1.418.454-.045 1.208.532 1.52.464 0 0-.183.541-.067.954.12.412-.097 1.395-1.344 1.395s-1.398-.644-1.398-.644z"/><g><path fill="#010101" d="M22.623 1.062C21.71-.121 20.82.175 20.338.337c-.08.029-.135.054-.216.054-.297.055-1.073.62-4.057 3.332l-.161.136a2.244 2.244 0 00-.725 1.153c-.377-.187-.993-.377-1.882-.457a6.649 6.649 0 00-1.29 0c-.186 0-.779-.055-1.288 0-.886.08-1.505.267-1.882.457-.08-.348-.267-.75-.725-1.153l-.161-.136C5.02 1.01 4.245.446 3.949.391a.755.755 0 01-.216-.054c-.484-.162-1.37-.458-2.285.725C.48 2.325-.244 5.092.778 6.327c.106.106.187.216.241.297l-.025.08C.968 6.76.536 8.048 1.37 9.66c.348.7.699 1.022.966 1.263.297.297.429.403.403.967a9.581 9.581 0 01-.187 1.399v.106c0 .08.055 2.256 1.344 3.87 1.183 1.48 1.962 2.31 2.93 2.74a4.889 4.889 0 001.665 1.746c.026.025.08.054.161.106.242.78.967 1.962 2.417 1.962h.806s.457 0 1.263-.025c1.479-.026 2.204-1.209 2.417-1.963.055-.026.106-.08.135-.08.7-.403 1.344-1.102 1.692-1.747.967-.428 1.746-1.263 2.93-2.739 1.288-1.611 1.343-3.76 1.343-3.87v-.106s-.136-.484-.187-1.399c-.026-.564.08-.67.377-.967.242-.241.59-.59.967-1.263.831-1.611.377-2.9.377-2.955l-.136-.08c.055-.081.136-.187.242-.323 1.018-1.208.293-3.976-.673-5.24zm-9.565 22.057c-.78.026-1.234.026-1.234.026-.16-.026-.428-.026-.805-.026-.806 0-1.264-.483-1.531-.912h.106c.136 0 .268-.026.429-.08.135-.055.242-.107.377-.161.267.135.831.322 1.666.267h.296c.67 0 1.128-.161 1.37-.267.135.054.267.106.377.16.161.081.348.081.509.081-.296.429-.754.886-1.56.912zm-1.021-2.15c.08.107.161.188.242.243.135.08.322.186.509.296-.216.026-.458.055-.725.026h-.055c-.297.026-.538 0-.725-.026.187-.106.377-.216.509-.296.084-.055.164-.136.245-.242zM22.784 5.9c-.429.509-.7.911-.458 1.208.026.026.08.106.187.135a3.555 3.555 0 01-.377 2.15c-.297.59-.59.86-.831 1.102-.348.322-.645.618-.59 1.505.055.805.161 1.318.187 1.479-.216-.242-.429-.458-.59-.67-.429-.59-.67-.162-1.318.296-.67.428.055.7-.75.187a2.689 2.689 0 00-.832-.322 1.31 1.31 0 00-.348-.323l-.08-.025c-.081-.026-1.773-.539-2.498.618-.216.187-.75.806-.055 2.095.268.483.725 1.021 1.154 1.53.216.268.457.539.644.806a1.253 1.253 0 00-.457-.106c-1.102-.136-.912.644-.912.644.135.51.322.429.509.268.187-.161.67-.055 1.234 0 .055 0 .106 0 .135-.026.107.216.162.403.187.59-.241.025-.644.135-1.153.106-.78-.026-1.264.242-1.264.242.162.78.967.16 1.586.241.296.055.564 0 .75-.106-.241.538-.83 1.263-1.559 1.666l-.055.026s-.483.428-.86.267a13.621 13.621 0 01-1.666-.86c-.135-.08-.216-.377-.268-.645v-.025c.323.054.725.054.887-.081.267-.187.348-.725.348-.725s-.242.267-.377 0c-.162-.268.106-.831.241-.831.107 0 .564 0 .297-.539-.268-.509-1.53 0-1.721.055-.187-.08-1.48-.564-1.72-.055-.268.539.186.539.296.539s.377.563.241.831c-.16.267-.377 0-.377 0s.055.51.348.725c.161.135.59.135.887.08v.026c-.055.268-.136.564-.268.645-.377.242-1.102.619-1.666.86-.296.136-.75-.187-.886-.296l-.161-.026c-.725-.429-1.318-1.128-1.53-1.666.186.106.428.135.75.106.619-.08 1.424.538 1.585-.241 0 0-.483-.268-1.263-.242-.509.026-.912-.106-1.153-.106.025-.187.08-.377.186-.59.055 0 .081.026.136.026.564-.026 1.047-.161 1.234 0 .187.16.377.241.51-.268 0 0 .186-.75-.913-.644a1.997 1.997 0 00-.457.106c.215-.267.428-.538.644-.806.429-.509.886-1.047 1.154-1.53.699-1.29.16-1.908-.055-2.095-.725-1.182-2.446-.644-2.497-.618l-.081.025c-.135.08-.242.187-.348.323-.268.054-.564.135-.831.322-.806.509-.107.241-.751-.187-.67-.429-.886-.886-1.318-.297a6.508 6.508 0 01-.59.67c.026-.16.161-.699.187-1.478.055-.887-.242-1.154-.59-1.505-.241-.216-.509-.51-.831-1.102-.483-.941-.458-1.747-.377-2.15.106-.025.161-.08.187-.135.241-.297-.026-.67-.458-1.208-.725-.887-.216-3.223.7-4.406C2.652.66 3.135.82 3.564.981c.106.026.216.08.268.08.186.081.992.67 3.734 3.172l.161.135c.67.59.51 1.154.51 1.183l-.403 1.343.967-.992s.267-.242.94-.458c-.025.242-.135.564-.377 1.022-.618 1.182-1.504 3.061-1.182 4.083a4.203 4.203 0 001.073 1.691s.725-.322.428-.699c-.322-.403-.215-1.183-.644-1.72-.429-.539-.055-.539.377-1.48.377-.831 1.318-2.39 1.234-3.035.055 0 .136-.026.187-.026.458-.055 1.073 0 1.209 0h.054c.136 0 .725-.026 1.209 0 .054 0 .135 0 .187.026-.08.644.86 2.204 1.234 3.035.428.941.805.941.377 1.48-.429.537-.322 1.343-.645 1.72-.322.403.429.7.429.7s.75-.671 1.073-1.692c.322-1.022-.564-2.9-1.183-4.083-.241-.458-.348-.78-.377-1.022.67.187.912.429.912.429L16.34 7l-.484-1.45s-.16-.59.51-1.183l.16-.135c2.714-2.498 3.52-3.09 3.707-3.171.08-.026.186-.055.296-.08.429-.136.912-.297 1.53.482.938 1.183 1.422 3.548.726 4.435zM6.949 17.783c-.22.02-.178-.065-.39-.145-.152-.055-.261-.01-.316.116a.302.302 0 00.09.36c.11.085.22.152.339.204-.104.251-.165.5-.165.744-.644-.457-1.263-1.153-2.123-2.23-.539-.67-.832-1.45-.993-2.094.135-.08.268-.242.348-.538.187-.832.886-.645.7-.187-.188.457.106.886.724.402.297-.241.725-.59 1.183-.886a2.05 2.05 0 00-.08 1.263c.186.7.725 1.103 1.504 1.154h.161c.187 0 .348-.026.51-.055-.136.161-.268.323-.429.51-.393.457-.78.921-1.063 1.382zm10.482.541c.123-.051.239-.119.355-.21a.303.303 0 00.09-.36c-.055-.129-.168-.174-.316-.116-.222.084-.167.167-.416.142-.286-.458-.673-.922-1.047-1.376-.135-.161-.296-.348-.403-.51.161.026.323.055.51.055h.16c.78-.025 1.319-.457 1.505-1.153.107-.403.055-.86-.08-1.264.457.297.886.67 1.183.887.59.457.911.025.725-.403-.187-.458.509-.645.699.187.055.296.187.457.348.538-.216.644-.51 1.424-1.047 2.094-.86 1.074-1.48 1.773-2.095 2.23a2.027 2.027 0 00-.17-.74zm-1.418-3.4c.242 0 .429-.428.429-.94 0-.403-.106-.725-.268-.86.242.025.458.054.539.08.348.241.564.912.457 1.398-.106.403-.403.619-.86.645-.645.026-1.128-.161-1.344-.51-.216-.322-.187-.724.026-1.127.187-.322.509-.458.831-.484-.16.136-.267.484-.267.86.026.536.216.939.457.939zm-7.953 0c.242 0 .429-.428.429-.94 0-.403-.106-.725-.268-.86.323.025.67.135.832.483.216.402.242.831.055 1.127-.216.348-.7.539-1.344.51-.458-.026-.75-.242-.86-.645-.136-.483.08-1.154.457-1.398.08-.026.297-.081.538-.081-.16.135-.267.483-.267.86 0 .542.187.945.428.945z"/></g></svg>