<svg xmlns="http://www.w3.org/2000/svg" viewBox="0 0 95.686 104.463"><g transform="matrix(1.04457 0 0 1.04457 -.742 -.063)"><defs><linearGradient x1="0" y1="0" x2="0" y2="1" id="a" gradientTransform="rotate(-90 .5 .5)"><stop offset="0" stop-color="#1f2022"/><stop offset="1" stop-color="#635e69"/></linearGradient></defs><path fill="url(#a)" d="M91.5 75.35q1.55-4.2.15-7.65-1.3-3.2-5-5.4-3.45-2-8.35-2.9-4.45-.8-9.7-.7-5.05.15-9.8 1.1-4.55.95-8 2.4-3.4 1.45-5.3 3.15-1.9 1.8-2 3.7-.15 2.25 2.3 4.85 2.25 2.4 6.3 4.7 4.05 2.3 8.95 3.95Q66.3 84.3 71.4 84.8q3.3.3 6.15.1 3.1-.3 5.75-1.3 2.85-1.1 4.85-3.05 2.25-2.15 3.35-5.2M70.6 67.5q1.7.9 2.5 2.2.8 1.45.35 3.3-.35 1.3-1.15 2.25-.75.85-2 1.35-1.05.45-2.55.65-1.45.15-2.9.05-2.55-.15-5.6-1-2.65-.8-5.1-2-2.25-1.1-3.7-2.3-1.4-1.25-1.35-2.2.1-.8 1.15-1.55 1.05-.7 2.9-1.25 1.85-.6 4.1-.9 2.55-.3 4.85-.3 2.55.05 4.6.4 2.2.45 3.9 1.3z"/></g><g transform="matrix(1.04457 0 0 1.04457 -.742 -.063)"><defs><linearGradient x1="0" y1="0" x2="0" y2="1" id="b" gradientTransform="rotate(-180 .5 .5)"><stop offset="0" stop-color="#2087e2"/><stop offset="1" stop-color="#b63fff"/></linearGradient></defs><path fill="url(#b)" d="M66.6 15.05q-.2-5.4-2.7-9-2.65-3.95-7.8-5.4-1.15-.35-2.45-.5Q52.5 0 51.3.1q-1.1 0-2.2.25-.95.2-2.1.65-3.7 1.45-6.7 5.1-2.8 3.3-4.8 8.2-1.75 4.15-2.8 9.1-1 4.65-1.35 9.45-.3 4.35-.05 8.35.3 3.95 1.1 7.15 1.6 6.55 4.9 8.05.3.15.6.25l1.3.2q.25 0 .75-.05 2.1-.2 4.75-1.75 2.55-1.55 5.35-4.25 3-2.9 5.8-6.75 2.95-4 5.25-8.45 2.7-5.25 4.15-10.3 1.5-5.55 1.35-10.25m-19.05 8.1q.5.1.85.25 4.05 1.4 4.15 6.45Q52.6 34 50 39.4q-2.15 4.5-5.15 7.9-2.8 3.2-4.7 3.4l-.25.05-.45-.05-.25-.1q-1.4-.65-1.95-4.25-.55-3.65.05-8.35.65-5.25 2.45-9.2 2.15-4.7 5.3-5.55.55-.15.8-.15.4-.05.8-.05t.9.1z"/></g><g transform="matrix(1.04457 0 0 1.04457 -.742 -.063)"><defs><linearGradient x1="0" y1="0" x2="0" y2="1" id="c" gradientTransform="rotate(-90 .5 .5)"><stop offset="0" stop-color="#100f0f"/><stop offset="1" stop-color="#49261F"/></linearGradient></defs><path fill="url(#c)" d="M2.7 33.6q-.6.8-1 1.75-.45 1.15-.65 2.35Q0 42.6 2.2 47.2 4 51 8 54.35q3.55 2.95 8 4.8 4.5 1.85 7.85 1.7.65 0 1.4-.15.75-.15 1.25-.4t.95-.65q.45-.4.7-.9 1.2-2.3-.65-7.1-1.9-4.65-5.75-9.55-4-5.1-8.35-8.05-4.7-3.15-7.95-2.35-.8.2-1.5.7-.7.45-1.25 1.2m7.4 9.95q.25-.45.5-.7.25-.25.6-.45.4-.15.7-.2 1.6-.3 4.05 1.4 2.2 1.45 4.4 4.1 2 2.4 3.2 4.7 1.15 2.35.7 3.3-.1.2-.25.3-.15.2-.35.25-.1.1-.4.15l-.55.1q-1.6.1-4.15-.9-2.5-1-4.7-2.65-2.35-1.75-3.5-3.8-1.3-2.35-.6-4.7.15-.5.35-.9z"/></g><g transform="matrix(1.04457 0 0 1.04457 -.742 -.063)"><defs><linearGradient x1="0" y1="0" x2="0" y2="1" id="d" gradientTransform="rotate(-180 .5 .5)"><stop offset="0" stop-color="#222020"/><stop offset="1" stop-color="#49261F"/></linearGradient></defs><path fill="url(#d)" d="M34.95 74.2h-.2q-1.55-.05-2.85 1.05-1.2 1.05-2.05 3Q29.1 80 28.8 82.2q-.3 2.2-.1 4.45.4 4.75 2.8 8.05 2.8 3.8 7.8 5h.1l.3.1h.15q5.45 1.05 7.3-2.05.85-1.45.85-3.7-.05-2.15-.8-4.7-.75-2.6-2.1-5.2-1.35-2.65-3.05-4.8-1.8-2.25-3.6-3.6-1.9-1.4-3.5-1.55m-1.4 6.2q.8-2.2 2.05-2.1h.05q1.25.15 2.95 2.6 1.7 2.45 2.55 5.15.95 2.95.4 4.7-.65 1.85-3.2 1.5h-.05l-.05-.05h-.15q-2.5-.5-3.85-2.6-1.15-1.9-1.3-4.6-.15-2.65.6-4.6z"/></g><g transform="matrix(1.04457 0 0 1.04457 -.742 -.063)"><defs><linearGradient x1="0" y1="0" x2="0" y2="1" id="e" gradientTransform="rotate(-180 .5 .5)"><stop offset="0" stop-color="#1e1c1c"/><stop offset="1" stop-color="#49261F"/></linearGradient></defs><path fill="url(#e)" d="M22.7 69.65q-.45-.35-1.1-.6-.65-.25-1.35-.35-.65-.15-1.4-.2-2.15-.05-4.2.65-2 .65-3.25 1.95-1.25 1.4-1.2 3.1.05 1.85 1.75 4 .45.55 1.1 1.2.5.5 1.15.9.5.3 1.1.55.7.25 1.1.25 1.8.25 3.5-.75 1.65-.95 2.85-2.7 1.25-1.8 1.55-3.7.3-2.1-.75-3.45-.4-.5-.85-.85m-1 2.05q.45.6.2 1.6-.2.95-.9 1.95-.7.95-1.6 1.5-.95.6-1.85.5l-.55-.1q-.3-.1-.55-.3-.2-.1-.55-.4-.2-.2-.5-.55-.9-1.15-.7-2.1.1-.85 1.05-1.5.85-.6 2.05-.9 1.2-.3 2.3-.25l.55.05.45.1q.2.1.35.2l.25.2z"/></g><g transform="matrix(1.04457 0 0 1.04457 -.742 -.063)"><defs><linearGradient x1="0" y1="0" x2="0" y2="1" id="f" gradientTransform="rotate(-360 .5 .5)"><stop offset="0" stop-color="#FFF" stop-opacity=".5"/><stop offset="1" stop-color="#FFF" stop-opacity=".2"/></linearGradient></defs><path fill="url(#f)" d="M52.6 19.25q7 0 13.6 1.7.5-3.15.4-5.9-.2-5.4-2.7-9-2.65-3.95-7.8-5.4-1.15-.35-2.45-.5Q52.5 0 51.3.1q-1.1 0-2.2.25-.95.2-2.1.65-3.7 1.45-6.7 5.1-2.8 3.3-4.8 8.2-1.65 4-2.7 8.55 9.45-3.6 19.8-3.6z"/></g><g transform="matrix(1.04457 0 0 1.04457 -.742 -.063)"><defs><linearGradient x1="0" y1="0" x2="0" y2="1" id="g" gradientTransform="rotate(-360 .5 .5)"><stop offset="0" stop-color="#FFF" stop-opacity=".5"/><stop offset="1" stop-color="#FFF" stop-opacity=".2"/></linearGradient></defs><path fill="url(#g)" d="M1.05 37.7Q0 42.6 2.2 47.2q.75 1.6 1.85 3.05 3.5-8.6 10.35-15.5-.4-.3-1-.7-4.7-3.15-7.95-2.35-.8.2-1.5.7-.7.45-1.25 1.2-.6.8-1 1.75-.45 1.15-.65 2.35z"/></g></svg>