<svg xmlns="http://www.w3.org/2000/svg" width="24" height="24"><path d="M2.861 9.616c.082 0 .16.011.234.034a.511.511 0 0 1 .196.107.46.46 0 0 1 .134.179.626.626 0 0 1 .025.437.463.463 0 0 1-.468.323.7.7 0 0 1-.148-.017.501.501 0 0 1-.141-.065.46.46 0 0 1-.11-.127.493.493 0 0 1-.055-.203.398.398 0 0 0-.217.072 1.022 1.022 0 0 0-.203.175c-.062.069-.117.143-.165.223s-.082.152-.103.217v1.148l-.003.124-.003.155c-.002.055-.006.112-.01.172a4.068 4.068 0 0 1-.01.165l.457-.021v.536H.424v-.457a.484.484 0 0 0 .23-.045c.057-.03.1-.072.127-.127a.557.557 0 0 0 .052-.196c.007-.078.01-.164.01-.258v-1.186l.003-.282c.005-.105.013-.211.024-.316l-.495.021v-.533c.163 0 .306-.007.43-.021.126-.014.233-.031.32-.052.089-.021.16-.042.213-.065a.469.469 0 0 0 .12-.072h.347l.031.605h.01c.046-.062.101-.131.165-.206a1.472 1.472 0 0 1 .512-.375.83.83 0 0 1 .338-.069zm2.616.495a.64.64 0 0 0-.278.058.659.659 0 0 0-.21.162.89.89 0 0 0-.148.251 1.428 1.428 0 0 0-.079.32h1.296a1.493 1.493 0 0 0-.052-.368.658.658 0 0 0-.124-.244.421.421 0 0 0-.179-.137.587.587 0 0 0-.226-.042zm1.554 1.245l-2.313.041c0 .193.017.371.052.536.037.163.094.304.172.423.078.117.18.21.306.278.126.066.281.1.464.1a1.252 1.252 0 0 0 .502-.117 1.45 1.45 0 0 0 .533-.413l.316.299a1.91 1.91 0 0 1-.832.701 1.676 1.676 0 0 1-.423.124 2.335 2.335 0 0 1-.385.034c-.259 0-.495-.044-.708-.131a1.556 1.556 0 0 1-.55-.375 1.693 1.693 0 0 1-.357-.588 2.283 2.283 0 0 1-.124-.773c0-.247.041-.484.124-.708.085-.227.204-.427.357-.602a1.674 1.674 0 0 1 1.278-.571c.131 0 .26.011.388.034.131.023.254.062.371.117.119.053.229.123.33.21.103.087.191.195.265.323s.131.28.172.454c.044.176.064.377.062.604zm2.399.275a2.148 2.148 0 0 0-.375.072c-.117.034-.219.08-.306.137a.677.677 0 0 0-.203.199.5.5 0 0 0-.072.268.397.397 0 0 0 .038.168.356.356 0 0 0 .086.113c.037.03.078.052.124.065a.524.524 0 0 0 .148.021c.11 0 .212-.023.306-.069a.834.834 0 0 0 .251-.189l.003-.785zm-1.804-1.087c0-.137.038-.264.113-.378a.99.99 0 0 1 .316-.292c.136-.082.294-.145.475-.189.181-.046.375-.069.581-.069.206 0 .39.026.55.079.162.053.299.134.409.244.112.11.197.25.254.419.06.17.089.371.089.605 0 .119-.001.225-.003.316v.261l-.003.261v.316l-.003.124-.003.155c0 .055-.002.112-.007.172a4.068 4.068 0 0 1-.01.165l.454-.021v.536h-1.33a7.669 7.669 0 0 1-.021-.165l-.007-.158h-.008c-.16.16-.328.273-.502.337-.174.066-.354.1-.54.1-.151 0-.286-.024-.406-.072a.84.84 0 0 1-.303-.196.906.906 0 0 1-.186-.296 1.037 1.037 0 0 1-.065-.375c0-.149.026-.283.079-.402.053-.119.125-.226.217-.32.094-.094.204-.175.33-.244.126-.069.261-.126.406-.172.147-.046.299-.081.457-.107s.316-.041.474-.048v-.368c0-.094-.008-.18-.024-.258a.554.554 0 0 0-.083-.206.403.403 0 0 0-.155-.134.512.512 0 0 0-.241-.045.806.806 0 0 0-.268.058.622.622 0 0 0-.213.144c.037.039.06.084.069.134a.482.482 0 0 1-.01.282.436.436 0 0 1-.086.141.465.465 0 0 1-.148.103.5.5 0 0 1-.399 0 .453.453 0 0 1-.138-.103.499.499 0 0 1-.086-.151.648.648 0 0 1-.025-.183zm6.926-2.609v4.183l-.003.124-.003.155c-.002.055-.006.112-.01.172a4.068 4.068 0 0 1-.01.165l.457-.021v.536h-1.337l-.038-.327H13.6a1.341 1.341 0 0 1-.994.44c-.211 0-.403-.041-.577-.124a1.33 1.33 0 0 1-.45-.358 1.726 1.726 0 0 1-.289-.564 2.463 2.463 0 0 1-.103-.739c0-.284.041-.545.124-.784.085-.241.203-.448.354-.622.154-.174.337-.311.55-.409a1.691 1.691 0 0 1 1.341-.021v-.465-.124l.007-.155.007-.168.014-.168-.495.021v-.537c.163 0 .306-.007.43-.021.126-.014.233-.031.32-.052.089-.021.16-.042.213-.065a.469.469 0 0 0 .12-.072h.38zm-1.577 4.785c.119 0 .23-.031.333-.093a.734.734 0 0 0 .248-.241v-2.117a.722.722 0 0 0-.21-.089.962.962 0 0 0-.289-.041.714.714 0 0 0-.406.124.81.81 0 0 0-.258.302 1.45 1.45 0 0 0-.137.423c-.025.158-.038.32-.038.485 0 .151.014.301.041.45s.071.283.131.402a.853.853 0 0 0 .237.285c.097.074.212.11.348.11zm3.509.097a.597.597 0 0 1-.038.213.522.522 0 0 1-.1.175.423.423 0 0 1-.155.113.468.468 0 0 1-.206.045.496.496 0 0 1-.213-.045.505.505 0 0 1-.165-.113.557.557 0 0 1-.145-.388.599.599 0 0 1 .151-.392.529.529 0 0 1 .361-.162.46.46 0 0 1 .203.045.48.48 0 0 1 .162.117.575.575 0 0 1 .145.392zm2.489-1.186a2.148 2.148 0 0 0-.375.072c-.117.034-.219.08-.306.137a.677.677 0 0 0-.203.199.5.5 0 0 0-.072.268.397.397 0 0 0 .038.168.356.356 0 0 0 .086.113c.037.03.078.052.124.065a.524.524 0 0 0 .148.021c.11 0 .212-.023.306-.069a.834.834 0 0 0 .251-.189l.003-.785zm-1.805-1.087c0-.137.038-.264.113-.378a.99.99 0 0 1 .316-.292c.135-.082.293-.146.474-.189.181-.046.375-.069.581-.069.206 0 .39.026.55.079.163.053.299.134.409.244.112.11.197.25.254.419.06.17.089.371.089.605 0 .119-.001.225-.003.316v.261l-.003.261v.316l-.003.124-.003.155c0 .055-.002.112-.007.172a4.068 4.068 0 0 1-.01.165l.454-.021v.536h-1.33a7.669 7.669 0 0 1-.021-.165l-.007-.158h-.007c-.16.16-.328.273-.502.337-.174.066-.354.1-.54.1-.151 0-.286-.024-.406-.072a.827.827 0 0 1-.488-.492 1.037 1.037 0 0 1-.065-.375c0-.149.026-.283.079-.402.053-.119.125-.226.217-.32.094-.094.204-.175.33-.244.126-.069.261-.126.406-.172.147-.046.299-.081.457-.107s.316-.041.474-.048v-.368c0-.094-.008-.18-.024-.258-.016-.08-.044-.149-.083-.206s-.091-.102-.155-.134a.512.512 0 0 0-.241-.045.806.806 0 0 0-.268.058.622.622 0 0 0-.213.144c.037.039.06.084.069.134a.458.458 0 0 1-.011.282.436.436 0 0 1-.086.141.465.465 0 0 1-.148.103.5.5 0 0 1-.399 0 .453.453 0 0 1-.138-.103.499.499 0 0 1-.086-.151.648.648 0 0 1-.025-.183zm4.108 1.544a.668.668 0 0 0 .103.303c.06.094.138.175.234.244s.209.123.337.162c.131.039.27.058.419.058a.723.723 0 0 0 .33-.083.35.35 0 0 0 .11-.11.272.272 0 0 0 .045-.158.257.257 0 0 0-.055-.168.469.469 0 0 0-.155-.131 1.663 1.663 0 0 0-.258-.12l-.351-.137-.443-.175a2.055 2.055 0 0 1-.406-.223 1.112 1.112 0 0 1-.299-.32.924.924 0 0 1-.113-.478c0-.135.025-.27.076-.406.053-.135.133-.257.241-.364.108-.108.245-.195.413-.261.167-.069.367-.103.598-.103a1.698 1.698 0 0 1 .433.059c.076.018.149.042.22.072s.135.065.192.107h.007l-.01-.199h.536v1.244h-.454a.965.965 0 0 0-.117-.327.8.8 0 0 0-.21-.247.925.925 0 0 0-.292-.158 1.076 1.076 0 0 0-.351-.055.729.729 0 0 0-.175.021.483.483 0 0 0-.148.065.315.315 0 0 0-.103.117.356.356 0 0 0-.038.172c0 .083.022.151.065.206.044.053.104.099.182.137s.168.076.272.11c.105.032.219.069.34.11.179.062.344.129.495.203.151.073.282.159.392.258.11.096.196.207.258.333a.93.93 0 0 1 .096.433.99.99 0 0 1-.395.818 1.236 1.236 0 0 1-.409.199 1.66 1.66 0 0 1-.478.069 2.308 2.308 0 0 1-.845-.165 1.031 1.031 0 0 1-.196-.113h-.007l.024.213h-.536l-.028-1.21.454-.002z"/></svg>