<svg xmlns="http://www.w3.org/2000/svg" width="24" height="24" viewBox="0 0 24 24"><path fill="#2FCBBE" d="M8.425 8.22h6.828v8.802H8.427L8.425 8.22z"/><path fill="#77FFBD" d="M16.35 13.258h4.83V22.7h-4.83V13.26z"/><path fill="#3088D4" d="M2.746 17.02H7.26v-8.8H2.745v8.8z"/><path fill="#4C4C4C" d="M15.29 22.703H2.78l.002-4.617H15.29v4.617zM16.385 8.22h4.828v3.95h-4.828V8.22zm5.657-3.057l-9.785-4.095c-.19-.13-1.347-.13-1.577 0L1.838 5.205c-.278.13-.425.43-.358.732.065.304 1.3 1.168 1.3 1.168h18.434s1.323-.948 1.323-1.31c0-.31-.21-.56-.494-.632z"/></svg>