<svg xmlns="http://www.w3.org/2000/svg" width="24" height="24"><path fill="#292929" d="M23.104 13.133a12.9 12.9 0 0 1-1.321 2.627 10.472 10.472 0 0 1-1.828 2.12 8.438 8.438 0 0 1-2.243 1.429 6.433 6.433 0 0 1-2.535.507c-.369 0-.748-.056-1.137-.169a2.694 2.694 0 0 1-1.045-.599c-.307-.297-.558-.691-.753-1.183-.195-.502-.292-1.132-.292-1.889 0-.277.015-.579.046-.906h-.061a8.07 8.07 0 0 1-.891 1.782 7.708 7.708 0 0 1-1.275 1.521c-.466.43-.994.787-1.567 1.06a3.982 3.982 0 0 1-1.69.384c-.614 0-1.132-.108-1.552-.323a2.763 2.763 0 0 1-.999-.876 3.84 3.84 0 0 1-.553-1.306 7.28 7.28 0 0 1-.169-1.598c0-.83.041-1.695.123-2.596.092-.901.189-1.772.292-2.611.102-.84.195-1.613.277-2.32.092-.717.138-1.301.138-1.751 0-.195-.01-.379-.031-.553a1.28 1.28 0 0 0-.108-.476.799.799 0 0 0-.261-.323c-.113-.082-.266-.123-.461-.123-.174 0-.358.056-.553.169-.195.102-.389.276-.584.522a5.016 5.016 0 0 0-.553.937c-.184.389-.353.86-.507 1.413l-.876-.184c.072-.369.2-.804.384-1.306a6.892 6.892 0 0 1 .768-1.459c.32-.463.72-.863 1.183-1.183.471-.328 1.024-.492 1.659-.492.83 0 1.459.261 1.889.783.44.522.661 1.28.661 2.273 0 .461-.02.983-.061 1.567-.043.6-.1 1.199-.169 1.797a137.37 137.37 0 0 1-.415 3.733 82.232 82.232 0 0 0-.154 1.567c-.041.471-.061.855-.061 1.152 0 .236.02.466.061.691s.113.425.215.599.241.318.415.43.394.169.661.169c.676 0 1.342-.246 1.997-.737s1.239-1.203 1.751-2.135c.522-.932.942-2.074 1.26-3.426.328-1.362.492-2.908.492-4.639 0-.543-.015-1.101-.046-1.674-.032-.601-.089-1.2-.169-1.797h2.688c.021.092.036.205.046.338.043.259.064.521.061.783.01.123.015.22.015.292 0 1.055-.056 2.069-.169 3.042-.102.963-.22 1.884-.353 2.765-.133.871-.256 1.705-.369 2.504a18.02 18.02 0 0 0-.154 2.274c0 .307.02.609.061.906.051.297.138.558.261.783.133.225.312.41.538.553.236.133.538.2.906.2a3.942 3.942 0 0 0 1.536-.323 5.95 5.95 0 0 0 1.49-.937 8.017 8.017 0 0 0 1.306-1.429 9.66 9.66 0 0 0 1.06-1.828c.307-.676.543-1.393.707-2.151.174-.768.261-1.562.261-2.381 0-.399-.026-.789-.077-1.167a5.493 5.493 0 0 0-.246-1.06 2.524 2.524 0 0 0-.476-.845 1.826 1.826 0 0 0-.722-.553c-.123.276-.302.476-.538.599s-.486.184-.753.184c-.143 0-.292-.026-.445-.077a1.28 1.28 0 0 1-.43-.246 1.409 1.409 0 0 1-.307-.415 1.426 1.426 0 0 1-.123-.614c0-.174.031-.353.092-.538.072-.184.179-.348.323-.492.143-.154.333-.277.568-.369.246-.102.548-.154.906-.154.635 0 1.188.148 1.659.445.471.297.86.696 1.167 1.198.307.502.538 1.086.691 1.751.154.666.23 1.372.23 2.12 0 .696-.067 1.408-.2 2.135a11.14 11.14 0 0 1-.562 2.109z"/></svg>