<svg id="Layer_1" data-name="Layer 1" xmlns="http://www.w3.org/2000/svg" viewBox="0 0 93.63 122.88"><defs><style>.cls-1{fill:#fbd734;}.cls-1,.cls-2{fill-rule:evenodd;}.cls-2{fill:#36464e;}</style></defs><title>padlock</title><path class="cls-1" d="M6,47.51H87.64a6,6,0,0,1,6,6v63.38a6,6,0,0,1-6,6H6a6,6,0,0,1-6-6V53.5a6,6,0,0,1,6-6Z"/><path class="cls-2" d="M41.89,89.26l-6.47,16.95H58.21L52.21,89a11.79,11.79,0,1,0-10.32.24Z"/><path class="cls-2" d="M83.57,47.51H72.22V38.09a27.32,27.32,0,0,0-7.54-19,24.4,24.4,0,0,0-35.73,0,27.32,27.32,0,0,0-7.54,19v9.42H10.06V38.09A38.73,38.73,0,0,1,20.78,11.28a35.69,35.69,0,0,1,52.07,0A38.67,38.67,0,0,1,83.57,38.09v9.42Z"/></svg>